<?xml version="1.0" standalone="no"?>
<!DOCTYPE svg PUBLIC "-//W3C//DTD SVG 20010904//EN"
 "http://www.w3.org/TR/2001/REC-SVG-20010904/DTD/svg10.dtd">
<svg version="1.0" xmlns="http://www.w3.org/2000/svg"
 width="720.000000pt" height="720.000000pt" viewBox="0 0 720.000000 720.000000"
 preserveAspectRatio="xMidYMid meet">

<g transform="translate(0.000000,720.000000) scale(0.100000,-0.100000)"
fill="#000000" stroke="none">
<path d="M3409 5563 c-63 -54 -125 -110 -137 -125 -13 -16 -30 -28 -38 -28 -8
0 -14 -4 -14 -9 0 -5 -57 -59 -127 -120 -71 -61 -189 -165 -263 -231 -74 -66
-192 -170 -262 -231 -71 -61 -128 -115 -128 -120 0 -5 -7 -9 -15 -9 -8 0 -15
-4 -15 -8 0 -5 -51 -52 -112 -104 -62 -53 -126 -109 -143 -125 -16 -16 -70
-65 -120 -108 -49 -43 -128 -114 -175 -157 -47 -43 -89 -79 -94 -81 -5 -1 -25
-18 -46 -37 -115 -109 -150 -140 -160 -140 -5 0 -10 -4 -10 -8 0 -5 -46 -49
-102 -98 -57 -49 -118 -103 -137 -121 -19 -18 -39 -33 -44 -33 -6 0 -3 -8 6
-18 10 -10 17 -21 17 -24 0 -3 27 -34 59 -69 33 -35 58 -67 55 -70 -2 -4 7
-14 20 -23 14 -8 37 -29 53 -46 l29 -30 89 77 c50 42 98 87 108 100 10 13 25
23 33 23 8 0 14 4 14 9 0 5 42 44 92 87 51 44 120 104 153 135 33 31 94 84
135 119 77 65 118 102 148 133 9 10 57 53 107 95 49 42 101 88 115 102 32 32
240 212 240 208 0 -2 43 39 97 89 53 51 98 92 99 90 2 -2 32 23 66 56 35 32
113 102 173 154 61 53 148 131 195 173 47 42 103 93 125 112 l39 36 141 -121
c77 -66 149 -131 160 -143 11 -12 74 -68 140 -125 66 -56 129 -112 140 -124
11 -11 81 -73 155 -138 188 -163 271 -237 370 -327 47 -43 129 -115 183 -161
53 -45 97 -86 97 -91 0 -4 5 -8 10 -8 6 0 39 -27 73 -59 67 -63 137 -125 347
-308 74 -65 146 -129 160 -143 56 -57 56 -57 105 -4 25 26 45 50 45 53 0 4 36
44 79 91 63 68 76 86 62 92 -9 4 -45 34 -81 67 -35 34 -67 61 -70 61 -4 0 -19
14 -36 31 -16 17 -76 72 -134 121 -58 50 -114 100 -125 112 -11 11 -70 63
-130 115 -61 52 -124 109 -142 127 -17 18 -34 30 -37 26 -3 -3 -6 -1 -6 5 0 5
-54 56 -119 112 -66 57 -121 106 -123 109 -2 4 -64 60 -138 124 -174 151 -367
322 -474 419 -28 26 -92 82 -142 125 -89 76 -232 204 -324 288 -105 97 -166
146 -181 146 -8 0 -67 -44 -130 -97z"/>
<path d="M1940 4950 l0 -431 138 122 c75 67 173 156 218 198 44 42 112 103
151 136 l69 60 -1 170 -2 170 -286 3 -287 2 0 -430z"/>
<path d="M3520 4882 c0 -4 -64 -61 -141 -127 -78 -66 -160 -139 -182 -162 -22
-23 -42 -41 -44 -39 -2 2 -20 -13 -41 -33 -64 -62 -215 -198 -257 -231 -36
-29 -100 -86 -195 -174 -19 -18 -66 -59 -105 -92 -38 -32 -97 -84 -130 -115
-33 -31 -109 -98 -170 -150 -60 -52 -111 -97 -113 -101 -8 -17 -190 -166 -196
-161 -3 4 -6 0 -6 -8 0 -8 0 -475 0 -1038 0 -959 1 -1026 18 -1044 42 -47 41
-47 572 -47 l500 0 0 454 c0 389 2 455 15 466 8 7 12 16 10 21 -3 4 8 15 24
24 42 21 872 22 911 0 14 -7 24 -16 23 -19 -2 -3 0 -6 5 -5 17 1 20 -69 21
-493 l1 -448 500 0 c560 0 558 0 585 64 13 30 15 182 15 1051 0 599 -4 1014
-9 1011 -5 -3 -22 9 -38 27 -16 17 -78 74 -138 126 -115 99 -266 234 -322 288
-19 17 -38 33 -43 35 -9 3 -153 132 -223 200 -21 20 -41 37 -44 36 -3 0 -33
26 -67 59 -33 32 -105 96 -158 142 -54 45 -98 87 -98 92 0 6 -4 8 -8 5 -5 -3
-22 9 -38 25 -16 17 -76 72 -134 122 -58 49 -114 100 -125 111 -11 12 -50 48
-86 79 -62 53 -89 68 -89 49z"/>
</g>
</svg>
